# xmcd
# Copyright (c) 1998 CDDB Inc.
#
# Track frame offsets:
#	150
#	22050
#	37695
#	59962
#	78337
#	103007
#	133327
#	151345
#	161247
#	179822
#	191647
#
# Disc length: 2813 seconds
#
# Revision: 1
# Processed by: cddbd v1.4PL0 Copyright (c) Steve Scherf et al.
# Submitted via: audiograbber 1.70
#
DISCID=9e0afb0b
DTITLE=rusty nails - but not the blue number
DYEAR=1900
DGENRE=
TTITLE0=getting at
TTITLE1=good bye
TTITLE2=talking big
TTITLE3=crazy cobra
TTITLE4=sorry laura
TTITLE5=picture postcard
TTITLE6=little black car
TTITLE7=times are changing
TTITLE8=the spanish dancers
TTITLE9=love grws wings
TTITLE10=this is you and me
EXTD=
EXTT0=
EXTT1=
EXTT2=
EXTT3=
EXTT4=
EXTT5=
EXTT6=
EXTT7=
EXTT8=
EXTT9=
EXTT10=
PLAYORDER=
